<svg width="17" height="17" viewBox="0 0 17 17" fill="none" xmlns="http://www.w3.org/2000/svg">
<path d="M8.30494 2.00702C7.42942 2.00702 6.56247 2.17947 5.75359 2.51451C4.94471 2.84956 4.20975 3.34065 3.59066 3.95974C2.97157 4.57883 2.48048 5.31379 2.14543 6.12267C1.81039 6.93155 1.63794 7.7985 1.63794 8.67402C1.63794 9.54954 1.81039 10.4165 2.14543 11.2254C2.48048 12.0342 2.97157 12.7692 3.59066 13.3883C4.20975 14.0074 4.94471 14.4985 5.75359 14.8335C6.56247 15.1686 7.42942 15.341 8.30494 15.341C10.0731 15.341 11.7689 14.6386 13.0192 13.3883C14.2695 12.138 14.9719 10.4422 14.9719 8.67402C14.9719 6.90582 14.2695 5.21004 13.0192 3.95974C11.7689 2.70943 10.0731 2.00702 8.30494 2.00702V2.00702ZM10.9719 9.34102H8.30494C8.12804 9.34102 7.95839 9.27075 7.8333 9.14566C7.70821 9.02057 7.63794 8.85092 7.63794 8.67402V6.00702C7.63794 5.83012 7.70821 5.66047 7.8333 5.53538C7.95839 5.41029 8.12804 5.34002 8.30494 5.34002C8.48184 5.34002 8.65149 5.41029 8.77658 5.53538C8.90167 5.66047 8.97194 5.83012 8.97194 6.00702V8.00702H10.9719C11.1488 8.00702 11.3185 8.07729 11.4436 8.20238C11.5687 8.32747 11.6389 8.49712 11.6389 8.67402C11.6389 8.85092 11.5687 9.02057 11.4436 9.14566C11.3185 9.27075 11.1488 9.34102 10.9719 9.34102Z" fill="#B2B8BF"/>
</svg>
